<?xml version="1.0" encoding="utf-8" ?>
<svg baseProfile="tiny" height="1000" version="1.2" width="1000" xmlns="http://www.w3.org/2000/svg" xmlns:ev="http://www.w3.org/2001/xml-events" xmlns:xlink="http://www.w3.org/1999/xlink"><defs /><rect fill="black" height="1000" width="1000" x="0" y="0" /><polygon fill="white" points="720,504 718,506 714,506 712,508 712,528 714,530 714,534 720,540 758,540 758,528 728,528 722,522 722,518 724,516 758,516 758,506 756,504" /><polygon fill="white" points="838,480 836,482 836,490 838,492 856,492 858,494 858,540 868,540 868,494 870,492 888,492 890,490 890,482 888,480" /><polygon fill="white" points="782,480 780,482 778,482 776,484 776,486 774,488 774,508 776,510 776,512 778,514 780,514 782,516 808,516 810,518 810,528 808,530 774,530 774,540 816,540 818,538 818,536 820,534 820,528 822,526 822,520 820,518 820,510 816,506 814,506 812,504 788,504 784,500 784,496 788,492 818,492 820,490 820,482 818,480" /><polygon fill="white" points="712,480 712,490 714,490 716,492 756,492 758,490 758,480" /><polygon fill="white" points="636,480 636,484 638,486 638,488 640,490 640,494 642,496 642,498 644,500 644,504 646,506 646,508 648,510 648,514 650,516 650,518 652,520 652,524 654,526 654,528 656,530 656,534 658,536 658,538 660,540 672,540 674,538 674,536 676,534 676,532 678,530 678,526 680,524 680,522 682,520 682,516 684,514 684,512 686,510 686,506 688,504 688,502 690,500 690,496 692,494 692,492 694,490 694,486 696,484 696,480 684,480 684,482 682,484 682,488 680,490 680,494 678,496 678,498 676,500 676,504 674,506 674,508 672,510 672,514 670,516 670,518 668,520 668,522 666,524 664,522 664,520 662,518 662,514 660,512 660,510 658,508 658,506 656,504 656,500 654,498 654,496 652,494 652,490 650,488 650,486 648,484 648,480" /><polygon fill="white" points="570,480 568,482 568,484 566,486 566,540 568,540 570,542 574,542 578,538 578,502 580,500 582,502 582,504 586,508 586,510 588,512 588,514 590,516 590,518 594,522 594,524 596,526 596,528 598,530 598,532 600,534 600,536 604,540 608,540 610,542 614,542 616,540 618,540 620,538 620,480 610,480 610,522 608,524 606,522 606,520 604,518 604,516 602,514 602,512 598,508 598,506 596,504 596,502 594,500 594,498 592,496 592,494 588,490 588,488 586,486 586,484 582,480" /><polygon fill="white" points="540,480 540,540 542,542 548,542 550,540 550,480" /><polygon fill="white" points="434,480 434,486 436,488 436,494 438,496 438,500 440,502 440,506 442,508 442,514 444,516 444,520 446,522 446,526 448,528 448,534 450,536 450,538 452,540 464,540 466,538 466,536 468,534 468,530 470,528 470,524 472,522 472,518 474,516 474,512 476,510 476,506 478,504 480,506 480,508 482,510 482,514 484,516 484,520 486,522 486,528 488,530 488,534 490,536 490,538 492,540 504,540 506,538 506,536 508,534 508,530 510,528 510,524 512,522 512,518 514,516 514,512 516,510 516,506 518,504 518,500 520,498 520,492 522,490 522,486 524,484 524,480 512,480 512,484 510,486 510,490 508,492 508,496 506,498 506,502 504,504 504,508 502,510 502,514 500,516 500,520 498,522 496,520 496,516 494,514 494,510 492,508 492,502 490,500 490,496 488,494 488,488 486,486 486,482 484,480 472,480 472,484 470,486 470,490 468,492 468,496 466,498 466,502 464,504 464,510 462,512 462,516 460,518 460,520 458,522 456,520 456,516 454,514 454,508 452,506 452,502 450,500 450,494 448,492 448,488 446,486 446,482 444,480" /><polygon fill="white" points="366,480 364,482 364,488 366,490 366,492 384,492 386,494 386,540 396,540 396,494 398,492 416,492 418,490 418,480" /><polygon fill="white" points="302,422 300,424 300,426 296,430 296,432 292,436 292,438 286,444 286,446 282,450 282,452 278,456 278,458 274,462 274,464 268,470 268,472 264,476 264,478 260,482 260,484 256,488 256,494 260,498 260,500 262,502 262,504 266,508 266,510 268,510 272,506 272,504 278,498 278,496 282,492 282,490 286,486 286,484 290,480 290,478 296,472 296,470 302,464 306,468 306,470 310,474 310,476 314,480 314,482 316,484 316,486 320,490 320,492 324,496 324,498 328,502 328,504 332,508 332,510 336,514 336,516 338,518 338,520 342,524 342,526 346,530 346,532 350,536 350,538 354,542 354,544 356,546 356,548 360,552 360,554 364,558 364,560 368,564 368,566 372,570 372,572 374,574 374,576 378,580 378,582 382,586 382,588 386,592 386,594 390,598 390,600 392,602 392,604 394,606 420,606 420,604 418,602 418,600 414,596 414,594 410,590 410,588 406,584 406,582 404,580 404,578 400,574 400,572 396,568 396,566 392,562 392,560 388,556 388,554 386,552 386,550 382,546 382,544 378,540 378,538 374,534 374,532 370,528 370,526 368,524 368,522 364,518 364,516 360,512 360,510 356,506 356,504 352,500 352,498 350,496 350,494 346,490 346,488 342,484 342,482 338,478 338,476 334,472 334,470 330,466 330,464 328,462 328,460 324,456 324,454 320,450 320,448 316,444 316,442 312,438 312,436 310,434 310,432 306,428 306,426" /><polygon fill="white" points="196,422 196,424 192,428 192,430 186,436 186,438 182,442 182,444 178,448 178,450 172,456 172,458 168,462 168,464 164,468 164,470 160,474 160,476 154,482 154,484 150,488 150,490 146,494 146,496 142,500 142,502 136,508 136,510 132,514 132,516 128,520 128,522 122,528 122,530 118,534 118,536 114,540 114,542 110,546 110,548 104,554 104,556 100,560 100,562 96,566 96,568 92,572 92,574 86,580 86,582 82,586 82,588 78,592 78,594 72,600 72,602 70,604 70,606 202,606 204,604 204,602 210,596 210,594 214,590 214,588 218,584 218,582 222,578 222,576 228,570 228,568 232,564 232,562 236,558 236,556 240,552 240,548 236,544 236,542 232,538 232,536 230,534 230,532 228,530 224,534 224,536 220,540 220,542 214,548 214,550 210,554 210,556 206,560 206,562 200,568 200,570 196,574 196,576 192,580 192,582 190,584 116,584 114,582 114,580 118,576 118,574 122,570 122,568 128,562 128,560 132,556 132,554 136,550 136,548 140,544 140,542 146,536 146,534 150,530 150,528 154,524 154,522 160,516 160,514 164,510 164,508 168,504 168,502 172,498 172,496 178,490 178,488 182,484 182,482 186,478 186,476 190,472 190,470 196,464 202,470 202,472 204,474 204,476 208,480 208,482 212,486 212,488 216,492 216,494 220,498 220,500 222,502 222,504 226,508 226,510 230,514 230,516 234,520 234,522 238,526 238,528 240,530 240,532 244,536 244,538 248,542 248,544 252,548 252,550 256,554 256,556 258,558 258,560 262,564 262,566 266,570 266,572 270,576 270,578 274,582 274,584 276,586 276,588 280,592 280,594 284,598 284,600 288,604 288,606 316,606 314,604 314,602 310,598 310,596 306,592 306,590 302,586 302,584 300,582 300,580 296,576 296,574 292,570 292,568 288,564 288,562 284,558 284,556 280,552 280,550 278,548 278,546 274,542 274,540 270,536 270,534 266,530 266,528 262,524 262,522 260,520 260,518 256,514 256,512 252,508 252,506 248,502 248,500 244,496 244,494 240,490 240,488 238,486 238,484 234,480 234,478 230,474 230,472 226,468 226,466 222,462 222,460 218,456 218,454 216,452 216,450 212,446 212,444 208,440 208,438 204,434 204,432 200,428 200,426 198,424 198,422" /></svg>